<svg id="_1_4_-_3_4" data-name="1/4 - 3/4" xmlns="http://www.w3.org/2000/svg" width="80" height="60" viewBox="0 0 80 60">
  <defs>
    <style>
      .cls-1 {
        fill: #f1f3f6;
      }

      .cls-2 {
        fill: #c8ced7;
      }

      .cls-3 {
        font-size: 10px;
        fill: #3a4d5d;
        text-anchor: middle;
        font-family: OpenSans;
      }

      .cls-4 {
        fill: #3e7bd7;
      }
    </style>
  </defs>
  <g id="bg">
    <rect id="bg-2" data-name="bg" class="cls-1" width="80" height="60" rx="3" ry="3"/>
    <path id="bg-top" class="cls-2" d="M3,0H77a3,3,0,0,1,3,3V17a0,0,0,0,1,0,0H0a0,0,0,0,1,0,0V3A3,3,0,0,1,3,0Z"/>
    <text id="_1_4-3_4" data-name="1/4-3/4" class="cls-3" x="41.001" y="13">1/4-3/4</text>
  </g>
  <g id="main">
    <rect id="Rounded_Rectangle_2" data-name="Rounded Rectangle 2" class="cls-4" x="17" y="26" width="11" height="23" rx="3" ry="3"/>
    <path id="Rounded_Rectangle_2_copy_4" data-name="Rounded Rectangle 2 copy 4" class="cls-4" d="M33,26h8a0,0,0,0,1,0,0V49a0,0,0,0,1,0,0H33a3,3,0,0,1-3-3V29A3,3,0,0,1,33,26Z"/>
    <rect id="Rounded_Rectangle_2_copy_5" data-name="Rounded Rectangle 2 copy 5" class="cls-4" x="41" y="26" width="11" height="23"/>
    <path id="Rounded_Rectangle_2_copy_6" data-name="Rounded Rectangle 2 copy 6" class="cls-4" d="M52,26h8a3,3,0,0,1,3,3V46a3,3,0,0,1-3,3H52a0,0,0,0,1,0,0V26A0,0,0,0,1,52,26Z"/>
  </g>
</svg>
