<svg id="_1_4" data-name="1/4" xmlns="http://www.w3.org/2000/svg" width="80" height="60" viewBox="0 0 80 60">
  <defs>
    <style>
      .cls-1 {
        fill: #f1f3f6;
      }

      .cls-2 {
        fill: #c8ced7;
      }

      .cls-3 {
        font-size: 10px;
        fill: #3a4d5d;
        text-anchor: middle;
        font-family: OpenSans;
      }

      .cls-4 {
        fill: #3e7bd7;
      }
    </style>
  </defs>
  <g id="bg">
    <rect id="bg-2" data-name="bg" class="cls-1" width="80" height="60" rx="3" ry="3"/>
    <path id="bg-top" class="cls-2" d="M3,0H77a3,3,0,0,1,3,3V17a0,0,0,0,1,0,0H0a0,0,0,0,1,0,0V3A3,3,0,0,1,3,0Z"/>
    <text id="_1_4-1_4-1_4-1_4" data-name="1/4-1/4-1/4-1/4" class="cls-3" x="41" y="13.001">1/4-1/4-1/4-1/4</text>
  </g>
  <g id="main">
    <rect id="Rounded_Rectangle_2" data-name="Rounded Rectangle 2" class="cls-4" x="15" y="26" width="11" height="23" rx="3" ry="3"/>
    <rect id="Rounded_Rectangle_2_copy_4" data-name="Rounded Rectangle 2 copy 4" class="cls-4" x="28" y="26" width="11" height="23" rx="3" ry="3"/>
    <rect id="Rounded_Rectangle_2_copy_5" data-name="Rounded Rectangle 2 copy 5" class="cls-4" x="41" y="26" width="11" height="23" rx="3" ry="3"/>
    <rect id="Rounded_Rectangle_2_copy_6" data-name="Rounded Rectangle 2 copy 6" class="cls-4" x="54" y="26" width="11" height="23" rx="3" ry="3"/>
  </g>
</svg>
