<svg id="_2_3_-_1_3" data-name="2/3 - 1/3" xmlns="http://www.w3.org/2000/svg" width="80" height="60" viewBox="0 0 80 60">
  <defs>
    <style>
      .cls-1 {
        fill: #f1f3f6;
      }

      .cls-2 {
        fill: #c8ced7;
      }

      .cls-3 {
        font-size: 11px;
        fill: #3a4d5d;
        text-anchor: middle;
        font-family: OpenSans;
      }

      .cls-4 {
        fill: #3e7bd7;
      }
    </style>
  </defs>
  <g id="bg">
    <rect id="bg-2" data-name="bg" class="cls-1" width="80" height="60" rx="3" ry="3"/>
    <path id="bg-top" class="cls-2" d="M3,0H77a3,3,0,0,1,3,3V17a0,0,0,0,1,0,0H0a0,0,0,0,1,0,0V3A3,3,0,0,1,3,0Z"/>
    <text id="_2_3-1_3" data-name="2/3-1/3" class="cls-3" x="40" y="13">2/3-1/3</text>
  </g>
  <g id="main">
    <rect id="Rounded_Rectangle_2" data-name="Rounded Rectangle 2" class="cls-4" x="12" y="26" width="19" height="23" rx="3" ry="3"/>
    <rect id="Rounded_Rectangle_2_copy_2" data-name="Rounded Rectangle 2 copy 2" class="cls-4" x="27" y="26" width="19" height="23" rx="3" ry="3"/>
    <rect id="Rounded_Rectangle_2_copy_3" data-name="Rounded Rectangle 2 copy 3" class="cls-4" x="48" y="26" width="19" height="23" rx="3" ry="3"/>
  </g>
</svg>
